<svg width="24" height="24" viewBox="0 0 24 24" fill="none" xmlns="http://www.w3.org/2000/svg">
    <path
        d="M3 3H4.91294C5.67434 3 6.05503 3 6.32807 3.21666C6.60111 3.43333 6.68762 3.80407 6.86063 4.54554L7.13646 5.7277C7.2977 6.4187 7.37831 6.7642 7.54311 7.03624C7.79122 7.44582 8.17805 7.75278 8.63329 7.90133C8.93566 8 9.29044 8 10 8V8"
        stroke="#222222" stroke-width="2" stroke-linecap="round" />
    <path
        d="M19 18H6.96078C6.39467 18 6.11162 18 5.91068 17.9063C5.60796 17.7651 5.39572 17.4821 5.34495 17.152C5.31125 16.9328 5.39051 16.6611 5.54902 16.1176V16.1176C5.73775 15.4706 5.83211 15.147 6.00103 14.8929C6.25493 14.5109 6.63242 14.2278 7.07023 14.091C7.36151 14 7.69852 14 8.37255 14H14.3333"
        stroke="#222222" stroke-width="2" stroke-linecap="round" stroke-linejoin="round" />
    <path
        d="M16.3833 14H8.80588C7.84694 14 7.02296 13.3194 6.84186 12.3777L6.34294 9.78327C6.16503 8.85818 6.87391 8 7.81595 8H19.2686C20.0382 8 20.5194 8.83306 20.1348 9.49972L18.1157 12.9994C17.7585 13.6186 17.0981 14 16.3833 14Z"
        stroke="#222222" stroke-width="2" stroke-linecap="round" />
    <circle cx="16" cy="21" r="1" fill="#222222" />
    <circle cx="8" cy="21" r="1" fill="#222222" />
</svg>
