<svg width="24" height="25" viewBox="0 0 24 25" fill="none" xmlns="http://www.w3.org/2000/svg">
    <circle cx="12" cy="8.5" r="3" stroke="#33363F" stroke-width="2" stroke-linecap="round" />
    <path
        d="M15.2679 8.5C15.5332 8.04063 15.97 7.70543 16.4824 7.56815C16.9947 7.43086 17.5406 7.50273 18 7.76795C18.4594 8.03317 18.7946 8.47 18.9319 8.98236C19.0691 9.49472 18.9973 10.0406 18.7321 10.5C18.4668 10.9594 18.03 11.2946 17.5176 11.4319C17.0053 11.5691 16.4594 11.4973 16 11.2321C15.5406 10.9668 15.2054 10.53 15.0681 10.0176C14.9309 9.50528 15.0027 8.95937 15.2679 8.5L15.2679 8.5Z"
        stroke="#33363F" stroke-width="2" />
    <path
        d="M5.26795 8.5C5.53317 8.04063 5.97 7.70543 6.48236 7.56815C6.99472 7.43086 7.54063 7.50273 8 7.76795C8.45937 8.03317 8.79457 8.47 8.93185 8.98236C9.06914 9.49472 8.99727 10.0406 8.73205 10.5C8.46683 10.9594 8.03 11.2946 7.51764 11.4319C7.00528 11.5691 6.45937 11.4973 6 11.2321C5.54063 10.9668 5.20543 10.53 5.06815 10.0176C4.93086 9.50528 5.00273 8.95937 5.26795 8.5L5.26795 8.5Z"
        stroke="#33363F" stroke-width="2" />
    <path
        d="M16.9995 14.5V13.5H16.9994L16.9995 14.5ZM20.7202 17.4043L21.6627 17.0702L21.6627 17.07L20.7202 17.4043ZM16.8813 18.5L15.901 18.6974L16.0627 19.5H16.8813V18.5ZM14.7827 15.2129L14.1779 14.4165L13.0221 15.2943L14.254 16.0617L14.7827 15.2129ZM16.9995 14.5V15.5C18.6412 15.5 19.4028 16.6814 19.7777 17.7386L20.7202 17.4043L21.6627 17.07C21.1976 15.7588 19.9479 13.5 16.9995 13.5V14.5ZM20.7202 17.4043L19.7777 17.7384C19.7706 17.7184 19.7641 17.6807 19.7725 17.635C19.7804 17.5917 19.7982 17.559 19.8151 17.538C19.8472 17.4981 19.8735 17.5 19.8667 17.5V18.5V19.5C21.0118 19.5 22.1414 18.4204 21.6627 17.0702L20.7202 17.4043ZM19.8667 18.5V17.5H16.8813V18.5V19.5H19.8667V18.5ZM16.8813 18.5L17.8617 18.3026C17.6437 17.2205 17.0373 15.4392 15.3114 14.3641L14.7827 15.2129L14.254 16.0617C15.292 16.7083 15.727 17.8334 15.901 18.6974L16.8813 18.5ZM14.7827 15.2129L15.3875 16.0092C15.7741 15.7157 16.2844 15.5001 16.9996 15.5L16.9995 14.5L16.9994 13.5C15.8352 13.5001 14.9024 13.8662 14.1779 14.4165L14.7827 15.2129Z"
        fill="#33363F" />
    <path
        d="M7 14.5V13.5H6.99995L7 14.5ZM9.2168 15.2129L9.74563 16.0616L10.9774 15.2941L9.82151 14.4164L9.2168 15.2129ZM7.11914 18.5V19.5H7.9378L8.09945 18.6975L7.11914 18.5ZM4.13281 18.5L4.13265 19.5H4.13281V18.5ZM3.28027 17.4043L2.3378 17.07L2.33779 17.0701L3.28027 17.4043ZM7 14.5V15.5C7.71494 15.5 8.22534 15.7157 8.61208 16.0093L9.2168 15.2129L9.82151 14.4164C9.09712 13.8664 8.1644 13.5 7 13.5V14.5ZM9.2168 15.2129L8.68797 14.3642C6.96233 15.4394 6.35666 17.221 6.13883 18.3025L7.11914 18.5L8.09945 18.6975C8.27355 17.8331 8.70811 16.7081 9.74563 16.0616L9.2168 15.2129ZM7.11914 18.5V17.5H4.13281V18.5V19.5H7.11914V18.5ZM4.13281 18.5L4.13298 17.5C4.12618 17.5 4.15297 17.4982 4.18531 17.5385C4.20225 17.5596 4.2201 17.5924 4.22796 17.6356C4.23626 17.6813 4.22977 17.7188 4.22276 17.7385L3.28027 17.4043L2.33779 17.0701C1.85935 18.4191 2.98641 19.4998 4.13265 19.5L4.13281 18.5ZM3.28027 17.4043L4.22274 17.7386C4.59784 16.6811 5.35869 15.5001 7.00005 15.5L7 14.5L6.99995 13.5C4.05151 13.5001 2.80278 15.7591 2.3378 17.07L3.28027 17.4043Z"
        fill="#33363F" />
    <path
        d="M12 14.5C15.5715 14.5 16.5919 17.0512 16.8834 18.5089C16.9917 19.0504 16.5523 19.5 16 19.5H8C7.44772 19.5 7.00829 19.0504 7.11659 18.5089C7.4081 17.0512 8.42846 14.5 12 14.5Z"
        stroke="#33363F" stroke-width="2" stroke-linecap="round" />
</svg>
