<svg width="24" height="24" viewBox="0 0 24 24" fill="none" xmlns="http://www.w3.org/2000/svg">
    <path
        d="M12.4473 4.0139C13.4827 4.07173 14.502 4.3297 15.4464 4.7805C16.8417 5.4466 18.0147 6.5031 18.8223 7.82152L18.9688 8.07152C19.6788 9.33089 20.0351 10.7614 19.9972 12.2102C19.9591 13.6592 19.5282 15.0688 18.753 16.2893L18.5938 16.5305C17.7183 17.8048 16.4918 18.7987 15.0636 19.3909C13.7245 19.9459 12.2615 20.1256 10.8311 19.9143L10.546 19.8664C9.12058 19.6029 7.79479 18.9583 6.71004 18.0022L6.49715 17.8069C6.04418 17.3775 5.64615 16.8983 5.3077 16.3811L7.37899 15.8264C7.53224 16.0115 7.69654 16.1882 7.87215 16.3547L8.03329 16.5012C8.84681 17.2182 9.84029 17.703 10.9093 17.9006L11.1231 17.9358C12.1961 18.0943 13.2935 17.9596 14.2979 17.5432C15.3691 17.0991 16.2887 16.3534 16.9454 15.3977L17.0645 15.217C17.646 14.3015 17.9696 13.2443 17.9981 12.1575C18.0266 11.0706 17.7593 9.99761 17.2266 9.05296L17.1163 8.86644C16.5106 7.87764 15.6315 7.08476 14.585 6.58519C14.0809 6.34454 13.5482 6.17757 13.003 6.08519L12.4473 4.0139Z"
        fill="#33363F" />
    <path
        d="M5.91239 4.06647C6.68924 3.47037 7.54796 2.99272 8.46042 2.64739C8.87978 2.48868 9.08946 2.40932 9.28694 2.51053C9.48442 2.61174 9.54649 2.84338 9.67063 3.30667L11.7412 11.0341C11.8632 11.4894 11.9242 11.7171 11.8206 11.8964C11.7171 12.0758 11.4894 12.1368 11.0341 12.2588L3.30667 14.3294C2.84338 14.4535 2.61174 14.5156 2.42535 14.3952C2.23896 14.2747 2.20284 14.0535 2.13061 13.6109C1.97344 12.6481 1.95774 11.6656 2.08555 10.6947C2.25696 9.39275 2.68314 8.13728 3.33975 7C3.99636 5.86272 4.87054 4.8659 5.91239 4.06647Z"
        stroke="#33363F" stroke-width="2" />
</svg>
