<svg width="24" height="24" viewBox="0 0 24 24" fill="none" xmlns="http://www.w3.org/2000/svg">
    <path
        d="M17.3833 4.05504C17.8998 3.96323 18.5951 3.93245 19.1577 4.4066L19.2691 4.50816L19.3706 4.61851C19.8449 5.1813 19.8131 5.87737 19.7212 6.3939C19.6467 6.8125 19.4944 7.31358 19.311 7.8734L19.1196 8.4525L16.6206 15.9486C16.2507 17.0582 15.9566 17.9417 15.6899 18.5902C15.4733 19.1171 15.2127 19.6585 14.8179 20.0336L14.6401 20.1839C13.6436 20.9256 12.301 20.9716 11.2612 20.3226L11.0581 20.1839C10.5605 19.8136 10.2551 19.1927 10.0073 18.5902C9.87404 18.266 9.73448 17.883 9.58155 17.4427L9.07764 15.9486C8.95348 15.5761 8.90049 15.4287 8.8628 15.347L8.82764 15.2816C8.76563 15.18 8.68624 15.0902 8.59327 15.017L8.49561 14.9486C8.45857 14.926 8.41516 14.9054 8.31983 14.8695L7.82764 14.6996C6.71815 14.3297 5.83547 14.0355 5.18702 13.7689C4.66001 13.5522 4.11882 13.2918 3.74366 12.8968L3.59327 12.7191C2.80224 11.6561 2.80224 10.2 3.59327 9.13707L3.74366 8.95933C4.11884 8.56438 4.66 8.30299 5.18702 8.08629C5.83543 7.81972 6.71836 7.52636 7.82764 7.1566L15.3247 4.65758L15.9038 4.46519C16.4635 4.28193 16.9648 4.12948 17.3833 4.05504ZM17.7339 6.02476C17.5445 6.05845 17.3149 6.11911 17.0259 6.20738L15.9575 6.55504L8.46046 9.05406C7.32191 9.43357 6.51747 9.7017 5.94776 9.9359C5.66608 10.0517 5.47307 10.1469 5.34327 10.2259C5.27786 10.2658 5.23868 10.2958 5.21729 10.3138L5.19776 10.3314C4.93425 10.6857 4.93418 11.1705 5.19776 11.5248L5.21729 11.5423C5.23868 11.5603 5.27777 11.5903 5.34327 11.6302C5.47308 11.7093 5.66599 11.8034 5.94776 11.9193C6.5175 12.1535 7.32167 12.4225 8.46046 12.8021L9.0337 13.0013C9.21253 13.0702 9.37997 13.146 9.53663 13.2416L9.68702 13.3392C10.0286 13.5768 10.3182 13.8833 10.5357 14.2396L10.6655 14.4828C10.7842 14.7342 10.8731 15.0109 10.9751 15.3168L11.4702 16.7865C11.6141 17.2011 11.7398 17.5446 11.8569 17.8295C11.9728 18.1112 12.0679 18.3032 12.147 18.433C12.2064 18.5305 12.2422 18.5699 12.2515 18.5795L12.3901 18.6654C12.7252 18.8384 13.1358 18.8101 13.4458 18.5795L13.4624 18.5599C13.4804 18.5386 13.511 18.499 13.5513 18.433C13.6303 18.3032 13.7247 18.1108 13.8403 17.8295C14.0746 17.2597 14.3435 16.4556 14.7232 15.3168L17.2222 7.81968L17.5698 6.75133C17.6582 6.46217 17.7188 6.23276 17.7524 6.04332C17.7537 6.03614 17.7532 6.02865 17.7544 6.02183C17.7479 6.02293 17.7407 6.02358 17.7339 6.02476Z"
        fill="#33363F" />
    <path
        d="M18.4995 5.50012L4.99945 9.50012L4.49945 10.0001L4.99945 12.5001L9.99945 15.0001L11.9995 19.5001H13.4995L16.9995 9.50012L18.4995 5.50012Z"
        fill="#33363F" stroke="#33363F" />
</svg>
