<svg width="24" height="24" viewBox="0 0 24 24" fill="none" xmlns="http://www.w3.org/2000/svg">
    <path
        d="M19.9082 4.21777L20.3622 3.32679L20.3622 3.32677L19.9082 4.21777ZM20.7822 5.0918L21.6732 4.63781L21.6732 4.63776L20.7822 5.0918ZM21 7.2002H20H21ZM21 9.76953L22 9.7708V9.76953H21ZM20.7695 10V11L20.7708 11L20.7695 10ZM20 10V9V10ZM18 12H17H18ZM20 14V15V14ZM20.7695 14L20.7708 13H20.7695V14ZM21 14.2305H22V14.2292L21 14.2305ZM20.7822 18.9082L21.6732 19.3622L21.6732 19.3622L20.7822 18.9082ZM19.9082 19.7822L20.3622 20.6732L20.3622 20.6732L19.9082 19.7822ZM6.2002 20V19V20ZM4.0918 19.7822L3.63776 20.6732L3.63781 20.6732L4.0918 19.7822ZM3.21777 18.9082L2.32677 19.3622L2.32679 19.3622L3.21777 18.9082ZM3 14.2305L2 14.2292V14.2305H3ZM3.23047 14V13L3.22919 13L3.23047 14ZM6 12H7H6ZM4 10V9V10ZM3.23047 10L3.22919 11H3.23047V10ZM3 9.76953H2L2 9.77081L3 9.76953ZM3 7.2002H4H3ZM3.21777 5.0918L2.32679 4.63776L2.32677 4.63781L3.21777 5.0918ZM4.0918 4.21777L3.63781 3.32677L3.63776 3.32679L4.0918 4.21777ZM6.2002 4V5V4ZM17.7998 4V5C18.3764 5 18.7488 5.00072 19.0324 5.02384C19.3043 5.046 19.4049 5.08367 19.4542 5.10878L19.9082 4.21777L20.3622 3.32677C19.9836 3.13389 19.5902 3.06267 19.1949 3.03045C18.8112 2.99917 18.3433 3 17.7998 3V4ZM19.9082 4.21777L19.4542 5.10876C19.6423 5.20462 19.7954 5.35771 19.8912 5.54583L20.7822 5.0918L21.6732 4.63776C21.3856 4.07338 20.9266 3.61439 20.3622 3.32679L19.9082 4.21777ZM20.7822 5.0918L19.8912 5.54579C19.9163 5.59506 19.954 5.69574 19.9762 5.96764C19.9993 6.25116 20 6.62355 20 7.2002H21H22C22 6.65673 22.0008 6.18884 21.9696 5.80514C21.9373 5.40983 21.8661 5.01636 21.6732 4.63781L20.7822 5.0918ZM21 7.2002H20V9.76953H21H22V7.2002H21ZM21 9.76953L20 9.76826C20.0005 9.34418 20.3442 9.00054 20.7683 9L20.7695 10L20.7708 11C21.4493 10.9991 21.9991 10.4493 22 9.7708L21 9.76953ZM20.7695 10V9H20V10V11H20.7695V10ZM20 10V9C18.3431 9 17 10.3431 17 12H18H19C19 11.4477 19.4477 11 20 11V10ZM18 12H17C17 13.6569 18.3431 15 20 15V14V13C19.4477 13 19 12.5523 19 12H18ZM20 14V15H20.7695V14V13H20V14ZM20.7695 14L20.7683 15C20.3442 14.9995 20.0005 14.6558 20 14.2317L21 14.2305L22 14.2292C21.9991 13.5507 21.4493 13.0009 20.7708 13L20.7695 14ZM21 14.2305H20V16.7998H21H22V14.2305H21ZM21 16.7998H20C20 17.3764 19.9993 17.7488 19.9762 18.0324C19.954 18.3043 19.9163 18.4049 19.8912 18.4542L20.7822 18.9082L21.6732 19.3622C21.8661 18.9836 21.9373 18.5902 21.9696 18.1949C22.0008 17.8112 22 17.3433 22 16.7998H21ZM20.7822 18.9082L19.8912 18.4542C19.7954 18.6423 19.6423 18.7954 19.4542 18.8912L19.9082 19.7822L20.3622 20.6732C20.9266 20.3856 21.3856 19.9266 21.6732 19.3622L20.7822 18.9082ZM19.9082 19.7822L19.4542 18.8912C19.4049 18.9163 19.3043 18.954 19.0324 18.9762C18.7488 18.9993 18.3764 19 17.7998 19V20V21C18.3433 21 18.8112 21.0008 19.1949 20.9696C19.5902 20.9373 19.9836 20.8661 20.3622 20.6732L19.9082 19.7822ZM17.7998 20V19H6.2002V20V21H17.7998V20ZM6.2002 20V19C5.62355 19 5.25116 18.9993 4.96764 18.9762C4.69574 18.954 4.59506 18.9163 4.54579 18.8912L4.0918 19.7822L3.63781 20.6732C4.01636 20.8661 4.40983 20.9373 4.80514 20.9696C5.18884 21.0008 5.65673 21 6.2002 21V20ZM4.0918 19.7822L4.54583 18.8912C4.35771 18.7954 4.20462 18.6423 4.10876 18.4542L3.21777 18.9082L2.32679 19.3622C2.61439 19.9266 3.07338 20.3856 3.63776 20.6732L4.0918 19.7822ZM3.21777 18.9082L4.10878 18.4542C4.08367 18.4049 4.046 18.3043 4.02384 18.0324C4.00072 17.7488 4 17.3764 4 16.7998H3H2C2 17.3433 1.99917 17.8112 2.03045 18.1949C2.06267 18.5902 2.13389 18.9836 2.32677 19.3622L3.21777 18.9082ZM3 16.7998H4V14.2305H3H2V16.7998H3ZM3 14.2305L4 14.2317C3.99946 14.6558 3.65582 14.9995 3.23174 15L3.23047 14L3.22919 13C2.55069 13.0009 2.00086 13.5507 2 14.2292L3 14.2305ZM3.23047 14V15H4V14V13H3.23047V14ZM4 14V15C5.65685 15 7 13.6569 7 12H6H5C5 12.5523 4.55228 13 4 13V14ZM6 12H7C7 10.3431 5.65685 9 4 9V10V11C4.55228 11 5 11.4477 5 12H6ZM4 10V9H3.23047V10V11H4V10ZM3.23047 10L3.23174 9C3.65582 9.00054 3.99946 9.34418 4 9.76826L3 9.76953L2 9.77081C2.00087 10.4493 2.55069 10.9991 3.22919 11L3.23047 10ZM3 9.76953H4V7.2002H3H2V9.76953H3ZM3 7.2002H4C4 6.62355 4.00072 6.25116 4.02384 5.96764C4.046 5.69574 4.08367 5.59506 4.10878 5.54579L3.21777 5.0918L2.32677 4.63781C2.13389 5.01636 2.06267 5.40983 2.03045 5.80514C1.99917 6.18884 2 6.65673 2 7.2002H3ZM3.21777 5.0918L4.10876 5.54583C4.20462 5.35771 4.35771 5.20462 4.54583 5.10876L4.0918 4.21777L3.63776 3.32679C3.07338 3.61439 2.61439 4.07338 2.32679 4.63776L3.21777 5.0918ZM4.0918 4.21777L4.54579 5.10878C4.59506 5.08367 4.69574 5.046 4.96764 5.02384C5.25116 5.00072 5.62355 5 6.2002 5V4V3C5.65673 3 5.18884 2.99917 4.80514 3.03045C4.40983 3.06267 4.01636 3.13389 3.63781 3.32677L4.0918 4.21777ZM6.2002 4V5H17.7998V4V3H6.2002V4Z"
        fill="#33363F" />
    <path d="M13 9V10" stroke="#33363F" stroke-width="2" stroke-linecap="round" />
    <path d="M13 4V5" stroke="#33363F" stroke-width="2" stroke-linecap="round" />
    <path d="M13 14V15" stroke="#33363F" stroke-width="2" stroke-linecap="round" />
    <path d="M13 19V20" stroke="#33363F" stroke-width="2" stroke-linecap="round" />
</svg>
